# Tiled2Unity generated file. Do not modify by hand.
# Wavefront file for 'testmap_mesh_0009.obj'

# Vertices (Count = 20)
v -624 -960 0
v -640 -960 0
v -640 -944 0
v -624 -944 0
v -640 -960 0
v -656 -960 0
v -656 -944 0
v -640 -944 0
v -672 -960 0
v -688 -960 0
v -688 -944 0
v -672 -944 0
v -688 -960 0
v -704 -960 0
v -704 -944 0
v -688 -944 0
v -624 -976 0
v -640 -976 0
v -640 -960 0
v -624 -960 0

# Texture cooridinates (Count = 16)
vt 0.1328125 0.3324405
vt 0.1411458 0.3324405
vt 0.1411458 0.3372024
vt 0.1328125 0.3372024
vt 0.1416667 0.3324405
vt 0.15 0.3324405
vt 0.15 0.3372024
vt 0.1416667 0.3372024
vt 0.159375 0.3324405
vt 0.1677083 0.3324405
vt 0.1677083 0.3372024
vt 0.159375 0.3372024
vt 0.1682292 0.3324405
vt 0.1765625 0.3324405
vt 0.1765625 0.3372024
vt 0.1682292 0.3372024

# Normal
vn 0 0 -1

# Mesh description
g testmap_mesh_0009

# Faces
f 1/1/1 2/2/1 3/3/1 4/4/1
f 5/5/1 6/6/1 7/7/1 8/8/1
f 9/9/1 10/10/1 11/11/1 12/12/1
f 13/13/1 14/14/1 15/15/1 16/16/1
f 17/1/1 18/2/1 19/3/1 20/4/1

