# Tiled2Unity generated file. Do not modify by hand.
# Wavefront file for 'testmap_mesh_0007.obj'

# Vertices (Count = 172)
v -1344 -176 0
v -1360 -176 0
v -1360 -160 0
v -1344 -160 0
v -1360 -176 0
v -1376 -176 0
v -1376 -160 0
v -1360 -160 0
v -1376 -176 0
v -1392 -176 0
v -1392 -160 0
v -1376 -160 0
v -1392 -176 0
v -1408 -176 0
v -1408 -160 0
v -1392 -160 0
v -1344 -192 0
v -1360 -192 0
v -1360 -176 0
v -1344 -176 0
v -1360 -192 0
v -1376 -192 0
v -1376 -176 0
v -1360 -176 0
v -1376 -192 0
v -1392 -192 0
v -1392 -176 0
v -1376 -176 0
v -1392 -192 0
v -1408 -192 0
v -1408 -176 0
v -1392 -176 0
v -1360 -208 0
v -1376 -208 0
v -1376 -192 0
v -1360 -192 0
v -1376 -208 0
v -1392 -208 0
v -1392 -192 0
v -1376 -192 0
v -1152 -256 0
v -1168 -256 0
v -1168 -240 0
v -1152 -240 0
v -1168 -256 0
v -1184 -256 0
v -1184 -240 0
v -1168 -240 0
v -1184 -256 0
v -1200 -256 0
v -1200 -240 0
v -1184 -240 0
v -1248 -256 0
v -1264 -256 0
v -1264 -240 0
v -1248 -240 0
v -1264 -256 0
v -1280 -256 0
v -1280 -240 0
v -1264 -240 0
v -1280 -256 0
v -1296 -256 0
v -1296 -240 0
v -1280 -240 0
v -1152 -352 0
v -1168 -352 0
v -1168 -336 0
v -1152 -336 0
v -1168 -352 0
v -1184 -352 0
v -1184 -336 0
v -1168 -336 0
v -1184 -352 0
v -1200 -352 0
v -1200 -336 0
v -1184 -336 0
v -1248 -352 0
v -1264 -352 0
v -1264 -336 0
v -1248 -336 0
v -1264 -352 0
v -1280 -352 0
v -1280 -336 0
v -1264 -336 0
v -1280 -352 0
v -1296 -352 0
v -1296 -336 0
v -1280 -336 0
v -848 -432 0
v -864 -432 0
v -864 -416 0
v -848 -416 0
v -864 -432 0
v -880 -432 0
v -880 -416 0
v -864 -416 0
v -880 -432 0
v -896 -432 0
v -896 -416 0
v -880 -416 0
v -928 -432 0
v -944 -432 0
v -944 -416 0
v -928 -416 0
v -944 -432 0
v -960 -432 0
v -960 -416 0
v -944 -416 0
v -960 -432 0
v -976 -432 0
v -976 -416 0
v -960 -416 0
v -1024 -432 0
v -1040 -432 0
v -1040 -416 0
v -1024 -416 0
v -1040 -432 0
v -1056 -432 0
v -1056 -416 0
v -1040 -416 0
v -1056 -432 0
v -1072 -432 0
v -1072 -416 0
v -1056 -416 0
v -1152 -432 0
v -1168 -432 0
v -1168 -416 0
v -1152 -416 0
v -1168 -432 0
v -1184 -432 0
v -1184 -416 0
v -1168 -416 0
v -1184 -432 0
v -1200 -432 0
v -1200 -416 0
v -1184 -416 0
v -1248 -432 0
v -1264 -432 0
v -1264 -416 0
v -1248 -416 0
v -1264 -432 0
v -1280 -432 0
v -1280 -416 0
v -1264 -416 0
v -1280 -432 0
v -1296 -432 0
v -1296 -416 0
v -1280 -416 0
v -1376 -432 0
v -1392 -432 0
v -1392 -416 0
v -1376 -416 0
v -1392 -432 0
v -1408 -432 0
v -1408 -416 0
v -1392 -416 0
v -1408 -432 0
v -1424 -432 0
v -1424 -416 0
v -1408 -416 0
v -1488 -432 0
v -1504 -432 0
v -1504 -416 0
v -1488 -416 0
v -1504 -432 0
v -1520 -432 0
v -1520 -416 0
v -1504 -416 0
v -1520 -432 0
v -1536 -432 0
v -1536 -416 0
v -1520 -416 0

# Texture cooridinates (Count = 52)
vt 0.4316406 0.09077382
vt 0.4628906 0.09077382
vt 0.4628906 0.1145833
vt 0.4316406 0.1145833
vt 0.4648438 0.09077382
vt 0.4960938 0.09077382
vt 0.4960938 0.1145833
vt 0.4648438 0.1145833
vt 0.4980469 0.09077382
vt 0.5292969 0.09077382
vt 0.5292969 0.1145833
vt 0.4980469 0.1145833
vt 0.53125 0.09077382
vt 0.5625 0.09077382
vt 0.5625 0.1145833
vt 0.53125 0.1145833
vt 0.4316406 0.06547618
vt 0.4628906 0.06547618
vt 0.4628906 0.08928573
vt 0.4316406 0.08928573
vt 0.4648438 0.06547618
vt 0.4960938 0.06547618
vt 0.4960938 0.08928573
vt 0.4648438 0.08928573
vt 0.4980469 0.06547618
vt 0.5292969 0.06547618
vt 0.5292969 0.08928573
vt 0.4980469 0.08928573
vt 0.53125 0.06547618
vt 0.5625 0.06547618
vt 0.5625 0.08928573
vt 0.53125 0.08928573
vt 0.4648438 0.0401786
vt 0.4960938 0.0401786
vt 0.4960938 0.06398809
vt 0.4648438 0.06398809
vt 0.4980469 0.0401786
vt 0.5292969 0.0401786
vt 0.5292969 0.06398809
vt 0.4980469 0.06398809
vt 0.09960938 0.8497024
vt 0.1308594 0.8497024
vt 0.1308594 0.8735119
vt 0.09960938 0.8735119
vt 0.1328125 0.8497024
vt 0.1640625 0.8497024
vt 0.1640625 0.8735119
vt 0.1328125 0.8735119
vt 0.1660156 0.8497024
vt 0.1972656 0.8497024
vt 0.1972656 0.8735119
vt 0.1660156 0.8735119

# Normal
vn 0 0 -1

# Mesh description
g testmap_mesh_0007

# Faces
f 1/1/1 2/2/1 3/3/1 4/4/1
f 5/5/1 6/6/1 7/7/1 8/8/1
f 9/9/1 10/10/1 11/11/1 12/12/1
f 13/13/1 14/14/1 15/15/1 16/16/1
f 17/17/1 18/18/1 19/19/1 20/20/1
f 21/21/1 22/22/1 23/23/1 24/24/1
f 25/25/1 26/26/1 27/27/1 28/28/1
f 29/29/1 30/30/1 31/31/1 32/32/1
f 33/33/1 34/34/1 35/35/1 36/36/1
f 37/37/1 38/38/1 39/39/1 40/40/1
f 41/41/1 42/42/1 43/43/1 44/44/1
f 45/45/1 46/46/1 47/47/1 48/48/1
f 49/49/1 50/50/1 51/51/1 52/52/1
f 53/41/1 54/42/1 55/43/1 56/44/1
f 57/45/1 58/46/1 59/47/1 60/48/1
f 61/49/1 62/50/1 63/51/1 64/52/1
f 65/41/1 66/42/1 67/43/1 68/44/1
f 69/45/1 70/46/1 71/47/1 72/48/1
f 73/49/1 74/50/1 75/51/1 76/52/1
f 77/41/1 78/42/1 79/43/1 80/44/1
f 81/45/1 82/46/1 83/47/1 84/48/1
f 85/49/1 86/50/1 87/51/1 88/52/1
f 89/41/1 90/42/1 91/43/1 92/44/1
f 93/45/1 94/46/1 95/47/1 96/48/1
f 97/49/1 98/50/1 99/51/1 100/52/1
f 101/41/1 102/42/1 103/43/1 104/44/1
f 105/45/1 106/46/1 107/47/1 108/48/1
f 109/49/1 110/50/1 111/51/1 112/52/1
f 113/41/1 114/42/1 115/43/1 116/44/1
f 117/45/1 118/46/1 119/47/1 120/48/1
f 121/49/1 122/50/1 123/51/1 124/52/1
f 125/41/1 126/42/1 127/43/1 128/44/1
f 129/45/1 130/46/1 131/47/1 132/48/1
f 133/49/1 134/50/1 135/51/1 136/52/1
f 137/41/1 138/42/1 139/43/1 140/44/1
f 141/45/1 142/46/1 143/47/1 144/48/1
f 145/49/1 146/50/1 147/51/1 148/52/1
f 149/41/1 150/42/1 151/43/1 152/44/1
f 153/45/1 154/46/1 155/47/1 156/48/1
f 157/49/1 158/50/1 159/51/1 160/52/1
f 161/41/1 162/42/1 163/43/1 164/44/1
f 165/45/1 166/46/1 167/47/1 168/48/1
f 169/49/1 170/50/1 171/51/1 172/52/1

