# Tiled2Unity generated file. Do not modify by hand.
# Wavefront file for 'testmap_mesh_0008.obj'

# Vertices (Count = 48)
v -1200 -640 0
v -1216 -640 0
v -1216 -624 0
v -1200 -624 0
v -1216 -640 0
v -1232 -640 0
v -1232 -624 0
v -1216 -624 0
v -1232 -640 0
v -1248 -640 0
v -1248 -624 0
v -1232 -624 0
v -1264 -640 0
v -1280 -640 0
v -1280 -624 0
v -1264 -624 0
v -1280 -640 0
v -1296 -640 0
v -1296 -624 0
v -1280 -624 0
v -1296 -640 0
v -1312 -640 0
v -1312 -624 0
v -1296 -624 0
v -1200 -656 0
v -1216 -656 0
v -1216 -640 0
v -1200 -640 0
v -1216 -656 0
v -1232 -656 0
v -1232 -640 0
v -1216 -640 0
v -1232 -656 0
v -1248 -656 0
v -1248 -640 0
v -1232 -640 0
v -1264 -656 0
v -1280 -656 0
v -1280 -640 0
v -1264 -640 0
v -1280 -656 0
v -1296 -656 0
v -1296 -640 0
v -1280 -640 0
v -1296 -656 0
v -1312 -656 0
v -1312 -640 0
v -1296 -640 0

# Texture cooridinates (Count = 48)
vt 0.4214876 0.5171102
vt 0.4380165 0.5171102
vt 0.4380165 0.5475285
vt 0.4214876 0.5475285
vt 0.4390496 0.5171102
vt 0.4555785 0.5171102
vt 0.4555785 0.5475285
vt 0.4390496 0.5475285
vt 0.4566116 0.5171102
vt 0.4731405 0.5171102
vt 0.4731405 0.5475285
vt 0.4566116 0.5475285
vt 0.2985537 0.5171102
vt 0.3150826 0.5171102
vt 0.3150826 0.5475285
vt 0.2985537 0.5475285
vt 0.3161157 0.5171102
vt 0.3326446 0.5171102
vt 0.3326446 0.5475285
vt 0.3161157 0.5475285
vt 0.3336777 0.5171102
vt 0.3502066 0.5171102
vt 0.3502066 0.5475285
vt 0.3336777 0.5475285
vt 0.4214876 0.4847909
vt 0.4380165 0.4847909
vt 0.4380165 0.5152091
vt 0.4214876 0.5152091
vt 0.4390496 0.4847909
vt 0.4555785 0.4847909
vt 0.4555785 0.5152091
vt 0.4390496 0.5152091
vt 0.4566116 0.4847909
vt 0.4731405 0.4847909
vt 0.4731405 0.5152091
vt 0.4566116 0.5152091
vt 0.2985537 0.4847909
vt 0.3150826 0.4847909
vt 0.3150826 0.5152091
vt 0.2985537 0.5152091
vt 0.3161157 0.4847909
vt 0.3326446 0.4847909
vt 0.3326446 0.5152091
vt 0.3161157 0.5152091
vt 0.3336777 0.4847909
vt 0.3502066 0.4847909
vt 0.3502066 0.5152091
vt 0.3336777 0.5152091

# Normal
vn 0 0 -1

# Mesh description
g testmap_mesh_0008

# Faces
f 1/1/1 2/2/1 3/3/1 4/4/1
f 5/5/1 6/6/1 7/7/1 8/8/1
f 9/9/1 10/10/1 11/11/1 12/12/1
f 13/13/1 14/14/1 15/15/1 16/16/1
f 17/17/1 18/18/1 19/19/1 20/20/1
f 21/21/1 22/22/1 23/23/1 24/24/1
f 25/25/1 26/26/1 27/27/1 28/28/1
f 29/29/1 30/30/1 31/31/1 32/32/1
f 33/33/1 34/34/1 35/35/1 36/36/1
f 37/37/1 38/38/1 39/39/1 40/40/1
f 41/41/1 42/42/1 43/43/1 44/44/1
f 45/45/1 46/46/1 47/47/1 48/48/1

